<?xml version="1.0" encoding="UTF-8"?>
<svg width="64" height="64" viewBox="0 0 64 64" fill="none" xmlns="http://www.w3.org/2000/svg">
  <rect width="64" height="64" rx="16" fill="#18181B"/>
  <g>
    <path d="M32 16c8.837 0 16 7.163 16 16s-7.163 16-16 16-16-7.163-16-16 7.163-16 16-16z" fill="#38BDF8"/>
    <path d="M32 48c-8.837 0-16-7.163-16-16 0-2.21.895-4.21 2.343-5.657C20.79 22.895 22.79 22 25 22c2.21 0 4.21.895 5.657 2.343C34.105 26.79 35 28.79 35 31c0 2.21-.895 4.21-2.343 5.657C33.21 38.105 31.21 39 29 39c-2.21 0-4.21-.895-5.657-2.343C17.895 35.21 17 33.21 17 31z" fill="#06B6D4"/>
    <circle cx="32" cy="32" r="7" fill="#FBBF24"/>
    <circle cx="32" cy="32" r="3" fill="#fff"/>
  </g>
</svg>
