<svg width="936" height="192" viewBox="0 0 936 192" fill="none" xmlns="http://www.w3.org/2000/svg">
  <rect x="8" y="8" width="176" height="176" rx="38" fill="#0A0A0D"/>
  <rect x="24" y="24" width="144" height="144" rx="32" fill="url(#paint0_linear)"/>
  <path d="M55 119V69L81 109L96 82L111 109L137 69V119" stroke="white" stroke-width="14" stroke-linecap="round" stroke-linejoin="round"/>
  <path d="M66 133H126" stroke="white" stroke-opacity=".34" stroke-width="9" stroke-linecap="round"/>
  <circle cx="136" cy="57" r="9" fill="#2DD4BF"/>
  <circle cx="136" cy="57" r="3.75" fill="white" fill-opacity=".72"/>
  <path d="M240.7 128V64.4H255.82L276.7 98.6L297.58 64.4H312.7V128H298.3V87.32L281.02 115.64H272.38L255.1 87.32V128H240.7ZM343.087 129.08C338.887 129.08 335.137 128.12 331.837 126.2C328.597 124.22 326.047 121.52 324.187 118.1C322.327 114.62 321.397 110.69 321.397 106.31C321.397 101.87 322.327 97.94 324.187 94.52C326.047 91.04 328.597 88.34 331.837 86.42C335.137 84.44 338.887 83.45 343.087 83.45C346.387 83.45 349.327 84.08 351.907 85.34C354.547 86.6 356.707 88.4 358.387 90.74V84.53H372.157V128H358.387V121.79C356.707 124.13 354.547 125.93 351.907 127.19C349.327 128.45 346.387 129.08 343.087 129.08ZM346.777 116.66C350.317 116.66 353.137 115.7 355.237 113.78C357.337 111.8 358.387 109.31 358.387 106.31C358.387 103.25 357.337 100.76 355.237 98.84C353.137 96.86 350.317 95.87 346.777 95.87C343.357 95.87 340.567 96.86 338.407 98.84C336.307 100.76 335.257 103.25 335.257 106.31C335.257 109.31 336.307 111.8 338.407 113.78C340.567 115.7 343.357 116.66 346.777 116.66ZM382.91 128V64.4H396.68V98.3L412.97 84.53H429.71L409.82 101.27L431.15 128H414.68L400.01 109.76L396.68 112.55V128H382.91ZM455.311 129.08C450.871 129.08 446.911 128.12 443.431 126.2C440.011 124.22 437.341 121.52 435.421 118.1C433.501 114.62 432.541 110.69 432.541 106.31C432.541 101.87 433.471 97.94 435.331 94.52C437.251 91.04 439.861 88.34 443.161 86.42C446.521 84.44 450.331 83.45 454.591 83.45C458.791 83.45 462.481 84.38 465.661 86.24C468.901 88.1 471.391 90.74 473.131 94.16C474.931 97.58 475.831 101.57 475.831 106.13C475.831 107.33 475.771 108.35 475.651 109.19H446.041C446.581 111.77 447.751 113.81 449.551 115.31C451.411 116.75 453.721 117.47 456.481 117.47C460.501 117.47 463.531 116.09 465.571 113.33L474.391 120.35C472.291 123.17 469.621 125.33 466.381 126.83C463.141 128.33 459.451 129.08 455.311 129.08ZM446.131 100.73H462.331C461.971 98.33 461.101 96.47 459.721 95.15C458.341 93.83 456.601 93.17 454.501 93.17C452.281 93.17 450.421 93.83 448.921 95.15C447.481 96.47 446.551 98.33 446.131 100.73ZM501.965 128V104.15L478.655 64.4H495.215L509.255 90.11L523.295 64.4H539.315L516.365 104.15V128H501.965ZM561.429 129.08C556.929 129.08 552.909 128.12 549.369 126.2C545.889 124.22 543.159 121.52 541.179 118.1C539.259 114.62 538.299 110.69 538.299 106.31C538.299 101.87 539.259 97.94 541.179 94.52C543.159 91.04 545.889 88.34 549.369 86.42C552.909 84.44 556.929 83.45 561.429 83.45C565.929 83.45 569.919 84.44 573.399 86.42C576.939 88.34 579.669 91.04 581.589 94.52C583.569 97.94 584.559 101.87 584.559 106.31C584.559 110.69 583.569 114.62 581.589 118.1C579.669 121.52 576.939 124.22 573.399 126.2C569.919 128.12 565.929 129.08 561.429 129.08ZM561.429 116.66C564.129 116.66 566.319 115.7 567.999 113.78C569.739 111.86 570.609 109.37 570.609 106.31C570.609 103.19 569.739 100.67 567.999 98.75C566.319 96.83 564.129 95.87 561.429 95.87C558.729 95.87 556.509 96.83 554.769 98.75C553.089 100.67 552.249 103.19 552.249 106.31C552.249 109.37 553.089 111.86 554.769 113.78C556.509 115.7 558.729 116.66 561.429 116.66ZM609.299 129.08C603.959 129.08 599.849 127.55 596.969 124.49C594.089 121.43 592.649 117.08 592.649 111.44V84.53H606.419V109.91C606.419 114.47 608.519 116.75 612.719 116.75C615.059 116.75 616.979 115.94 618.479 114.32C620.039 112.64 620.819 110.39 620.819 107.57V84.53H634.589V128H620.819V122.24C619.259 124.4 617.369 126.08 615.149 127.28C612.929 128.48 610.979 129.08 609.299 129.08ZM645.22 128V84.53H658.99V90.29C660.37 88.13 662.11 86.45 664.21 85.25C666.31 84.05 668.65 83.45 671.23 83.45C674.35 83.45 677.02 84.14 679.24 85.52L674.56 98.12C672.76 97.04 670.75 96.5 668.53 96.5C665.71 96.5 663.4 97.49 661.6 99.47C659.86 101.45 658.99 104.12 658.99 107.48V128H645.22ZM682.854 128V64.4H697.254V116.03H724.794V128H682.854ZM751.545 129.08C747.345 129.08 743.595 128.12 740.295 126.2C737.055 124.22 734.505 121.52 732.645 118.1C730.785 114.62 729.855 110.69 729.855 106.31C729.855 101.87 730.785 97.94 732.645 94.52C734.505 91.04 737.055 88.34 740.295 86.42C743.595 84.44 747.345 83.45 751.545 83.45C754.845 83.45 757.785 84.08 760.365 85.34C763.005 86.6 765.165 88.4 766.845 90.74V84.53H780.615V128H766.845V121.79C765.165 124.13 763.005 125.93 760.365 127.19C757.785 128.45 754.845 129.08 751.545 129.08ZM755.235 116.66C758.775 116.66 761.595 115.7 763.695 113.78C765.795 111.8 766.845 109.31 766.845 106.31C766.845 103.25 765.795 100.76 763.695 98.84C761.595 96.86 758.775 95.87 755.235 95.87C751.815 95.87 749.025 96.86 746.865 98.84C744.765 100.76 743.715 103.25 743.715 106.31C743.715 109.31 744.765 111.8 746.865 113.78C749.025 115.7 751.815 116.66 755.235 116.66ZM791.368 128V84.53H805.138V90.11C806.698 87.95 808.678 86.3 811.078 85.16C813.478 84.02 816.148 83.45 819.088 83.45C824.008 83.45 827.878 85.01 830.698 88.13C833.578 91.19 835.018 95.36 835.018 100.64V128H821.248V103.43C821.248 98.39 818.998 95.87 814.498 95.87C811.858 95.87 809.638 96.77 807.838 98.57C806.038 100.37 805.138 102.77 805.138 105.77V128H791.368ZM867.995 129.08C863.795 129.08 860.045 128.12 856.745 126.2C853.505 124.22 850.955 121.52 849.095 118.1C847.235 114.62 846.305 110.69 846.305 106.31C846.305 101.87 847.235 97.94 849.095 94.52C850.955 91.04 853.505 88.34 856.745 86.42C860.045 84.44 863.795 83.45 867.995 83.45C871.295 83.45 874.235 84.08 876.815 85.34C879.455 86.6 881.615 88.4 883.295 90.74V64.4H897.065V128H883.295V121.79C881.615 124.13 879.455 125.93 876.815 127.19C874.235 128.45 871.295 129.08 867.995 129.08ZM871.685 116.66C875.225 116.66 878.045 115.7 880.145 113.78C882.245 111.8 883.295 109.31 883.295 106.31C883.295 103.25 882.245 100.76 880.145 98.84C878.045 96.86 875.225 95.87 871.685 95.87C868.265 95.87 865.475 96.86 863.315 98.84C861.215 100.76 860.165 103.25 860.165 106.31C860.165 109.31 861.215 111.8 863.315 113.78C865.475 115.7 868.265 116.66 871.685 116.66Z" fill="white"/>
  <defs>
    <linearGradient id="paint0_linear" x1="35" y1="35" x2="157" y2="157" gradientUnits="userSpaceOnUse">
      <stop stop-color="#8B5CF6"/>
      <stop offset=".52" stop-color="#D946EF"/>
      <stop offset="1" stop-color="#EC4899"/>
    </linearGradient>
  </defs>
</svg>
